<mxfile host="app.diagrams.net" modified="2024-05-03T14:16:03.061Z" agent="Mozilla/5.0 (Windows NT 10.0; Win64; x64) AppleWebKit/537.36 (KHTML, like Gecko) Chrome/124.0.0.0 Safari/537.36" version="24.3.1" etag="xdF9gDMVkHmH8_pgVRmS" type="github">
  <diagram name="Halaman-1" id="fLuCJgZYzS6sdHih4k-R">
    <mxGraphModel>
      <root>
        <mxCell id="0" />
        <mxCell id="1" parent="0" />
      </root>
    </mxGraphModel>
  </diagram>
</mxfile>
